<?xml version="1.0" encoding="UTF-8"?><!DOCTYPE svg PUBLIC "-//W3C//DTD SVG 1.1//EN" "http://www.w3.org/Graphics/SVG/1.1/DTD/svg11.dtd"><svg xmlns="http://www.w3.org/2000/svg" xmlns:xlink="http://www.w3.org/1999/xlink" version="1.1" width="1200px" height="870px"><g id="titleBox"><rect x="0" y="0" width="1200" height="60" rx="9" ry="9" fill="#FFFFFF" stroke="#000000" pointer-events="all" /><text x="600" y="39" fill="#000000" font-family="Helvetica" font-size="30px" text-anchor="middle" font-weight="bold" text-decoration="underline">Sample JSON Roadmap</text></g><g id="yearBoxes"><rect x="0" y="70" width="390" height="30" rx="4.5" ry="4.5" fill="#ffffff" stroke="#000000" pointer-events="all" /><text x="195" y="90" fill="#000000" font-family="Helvetica" font-size="18px" text-anchor="middle">2020</text><rect x="405" y="70" width="390" height="30" rx="4.5" ry="4.5" fill="#ffffff" stroke="#000000" pointer-events="all" /><text x="600" y="90" fill="#000000" font-family="Helvetica" font-size="18px" text-anchor="middle">2021</text><rect x="810" y="70" width="390" height="30" rx="4.5" ry="4.5" fill="#ffffff" stroke="#000000" pointer-events="all" /><text x="1005" y="90" fill="#000000" font-family="Helvetica" font-size="18px" text-anchor="middle">2022</text></g><g id="yearDivisionBoxes"><rect x="0" y="104" width="95" height="30" rx="4.5" ry="4.5" fill="#ffffff" stroke="#000000" pointer-events="all" /><text x="48" y="124" fill="#000000" font-family="Helvetica" font-size="16px" text-anchor="middle">Q1</text><rect x="98" y="104" width="95" height="30" rx="4.5" ry="4.5" fill="#ffffff" stroke="#000000" pointer-events="all" /><text x="146" y="124" fill="#000000" font-family="Helvetica" font-size="16px" text-anchor="middle">Q2</text><rect x="197" y="104" width="95" height="30" rx="4.5" ry="4.5" fill="#ffffff" stroke="#000000" pointer-events="all" /><text x="245" y="124" fill="#000000" font-family="Helvetica" font-size="16px" text-anchor="middle">Q3</text><rect x="295" y="104" width="95" height="30" rx="4.5" ry="4.5" fill="#ffffff" stroke="#000000" pointer-events="all" /><text x="343" y="124" fill="#000000" font-family="Helvetica" font-size="16px" text-anchor="middle">Q4</text><rect x="405" y="104" width="95" height="30" rx="4.5" ry="4.5" fill="#ffffff" stroke="#000000" pointer-events="all" /><text x="453" y="124" fill="#000000" font-family="Helvetica" font-size="16px" text-anchor="middle">Q1</text><rect x="503" y="104" width="95" height="30" rx="4.5" ry="4.5" fill="#ffffff" stroke="#000000" pointer-events="all" /><text x="551" y="124" fill="#000000" font-family="Helvetica" font-size="16px" text-anchor="middle">Q2</text><rect x="602" y="104" width="95" height="30" rx="4.5" ry="4.5" fill="#ffffff" stroke="#000000" pointer-events="all" /><text x="650" y="124" fill="#000000" font-family="Helvetica" font-size="16px" text-anchor="middle">Q3</text><rect x="700" y="104" width="95" height="30" rx="4.5" ry="4.5" fill="#ffffff" stroke="#000000" pointer-events="all" /><text x="748" y="124" fill="#000000" font-family="Helvetica" font-size="16px" text-anchor="middle">Q4</text><rect x="810" y="104" width="95" height="30" rx="4.5" ry="4.5" fill="#ffffff" stroke="#000000" pointer-events="all" /><text x="858" y="124" fill="#000000" font-family="Helvetica" font-size="16px" text-anchor="middle">Q1</text><rect x="908" y="104" width="95" height="30" rx="4.5" ry="4.5" fill="#ffffff" stroke="#000000" pointer-events="all" /><text x="956" y="124" fill="#000000" font-family="Helvetica" font-size="16px" text-anchor="middle">Q2</text><rect x="1007" y="104" width="95" height="30" rx="4.5" ry="4.5" fill="#ffffff" stroke="#000000" pointer-events="all" /><text x="1055" y="124" fill="#000000" font-family="Helvetica" font-size="16px" text-anchor="middle">Q3</text><rect x="1105" y="104" width="95" height="30" rx="4.5" ry="4.5" fill="#ffffff" stroke="#000000" pointer-events="all" /><text x="1153" y="124" fill="#000000" font-family="Helvetica" font-size="16px" text-anchor="middle">Q4</text></g><defs><linearGradient x1="0%" y1="0%" x2="100%" y2="0%" id="gradient_JSON_Test_Track_1_Retirement_to_Retired"><stop offset="0%" stop-color="#FF3399" /><stop offset="100%" stop-color="#FF0000" /></linearGradient><linearGradient x1="0%" y1="0%" x2="100%" y2="0%" id="fill_JSON_Test_Track_2_Emerging"><stop offset="0%" stop-color="#0000FF" /><stop offset="100%" stop-color="#0000FF" /></linearGradient><linearGradient x1="0%" y1="0%" x2="100%" y2="0%" id="gradient_JSON_Test_Track_3_Standard_to_Containment"><stop offset="0%" stop-color="#00FF00" /><stop offset="100%" stop-color="#FFFF00" /></linearGradient><linearGradient x1="0%" y1="0%" x2="100%" y2="0%" id="gradient_JSON_Test_Track_3_Standard_to_Containment"><stop offset="0%" stop-color="#00FF00" /><stop offset="100%" stop-color="#FFFF00" /></linearGradient><linearGradient x1="0%" y1="0%" x2="100%" y2="0%" id="gradient_JSON_Test_Track_3_Standard_to_Retirement"><stop offset="0%" stop-color="#00FF00" /><stop offset="100%" stop-color="#FF3399" /></linearGradient><linearGradient x1="0%" y1="0%" x2="100%" y2="0%" id="gradient_JSON_Test_Track_3_Standard_to_Containment"><stop offset="0%" stop-color="#00FF00" /><stop offset="100%" stop-color="#FFFF00" /></linearGradient><linearGradient x1="0%" y1="0%" x2="100%" y2="0%" id="gradient_JSON_Test_Track_3_Standard_to_Retirement"><stop offset="0%" stop-color="#00FF00" /><stop offset="100%" stop-color="#FF3399" /></linearGradient><linearGradient x1="0%" y1="0%" x2="100%" y2="0%" id="gradient_JSON_Test_Track_3_Standard_to_Retired"><stop offset="0%" stop-color="#00FF00" /><stop offset="100%" stop-color="#FF0000" /></linearGradient><linearGradient x1="0%" y1="0%" x2="100%" y2="0%" id="gradient_JSON_Test_Track_5_Containment_to_Retirement"><stop offset="0%" stop-color="#FFFF00" /><stop offset="100%" stop-color="#FF3399" /></linearGradient><linearGradient x1="0%" y1="0%" x2="100%" y2="0%" id="fill_JSON_Test_Track_6_Emerging"><stop offset="0%" stop-color="#0000FF" /><stop offset="100%" stop-color="#0000FF" /></linearGradient></defs><g id="Tracks"><path d="M 0 210 L 0 170 L 551 170 L 551 210 Z" fill="url(#gradient_JSON_Test_Track_1_Retirement_to_Retired)" stroke="#000000" stroke-linejoin="round" stroke-miterlimit="10" pointer-events="all" /><text x="275.5" y="197" fill="#000000" font-family="Helvetica" font-size="18px" text-anchor="middle">JSON Test Track 1</text><path d="M 48 160 L 68 190 L 48 220L 28 190 Z" fill="#FF3399" stroke="#000000" stroke-miterlimit="10" pointer-events="all" /><text x="48" y="195" fill="#000000" font-family="Helvetica" font-size="14px" text-anchor="middle">R</text><path d="M 551 160 L 571 190 L 551 220L 531 190 Z" fill="#FF0000" stroke="#000000" stroke-miterlimit="10" pointer-events="all" /><text x="551" y="195" fill="#000000" font-family="Helvetica" font-size="14px" text-anchor="middle">X</text><path d="M 453 295 L 453 255 L 1158 255 L 1158 235 L 1199.5 275.0 L 1158 315 L 1158 295 Z" fill="url(#fill_JSON_Test_Track_2_Emerging)" stroke="#000000" stroke-linejoin="round" stroke-miterlimit="10" pointer-events="all" /><text x="805.5" y="282" fill="#000000" font-family="Helvetica" font-size="18px" text-anchor="middle">JSON Test Track 2</text><path d="M 453 245 L 473 275 L 453 305L 433 275 Z" fill="#0000FF" stroke="#000000" stroke-miterlimit="10" pointer-events="all" /><text x="453" y="280" fill="#000000" font-family="Helvetica" font-size="14px" text-anchor="middle">E</text><path d="M 48 380 L 48 340 L 650 340 L 650 380 Z" fill="url(#gradient_JSON_Test_Track_3_Standard_to_Containment)" stroke="#000000" stroke-linejoin="round" stroke-miterlimit="10" pointer-events="all" /><path d="M 48 380 L 48 340 L 956 340 L 956 380 Z" fill="url(#gradient_JSON_Test_Track_3_Standard_to_Retirement)" stroke="#000000" stroke-linejoin="round" stroke-miterlimit="10" pointer-events="all" /><path d="M 48 380 L 48 340 L 1055 340 L 1055 380 Z" fill="url(#gradient_JSON_Test_Track_3_Standard_to_Retired)" stroke="#000000" stroke-linejoin="round" stroke-miterlimit="10" pointer-events="all" /><text x="551.5" y="367" fill="#000000" font-family="Helvetica" font-size="18px" text-anchor="middle">JSON Test Track 3</text><path d="M 48 330 L 68 360 L 48 390L 28 360 Z" fill="#00FF00" stroke="#000000" stroke-miterlimit="10" pointer-events="all" /><text x="48" y="365" fill="#000000" font-family="Helvetica" font-size="14px" text-anchor="middle">S</text><path d="M 650 330 L 670 360 L 650 390L 630 360 Z" fill="#FFFF00" stroke="#000000" stroke-miterlimit="10" pointer-events="all" /><text x="650" y="365" fill="#000000" font-family="Helvetica" font-size="14px" text-anchor="middle">C</text><path d="M 956 330 L 976 360 L 956 390L 936 360 Z" fill="#FF3399" stroke="#000000" stroke-miterlimit="10" pointer-events="all" /><text x="956" y="365" fill="#000000" font-family="Helvetica" font-size="14px" text-anchor="middle">R</text><path d="M 1055 330 L 1075 360 L 1055 390L 1035 360 Z" fill="#FF0000" stroke="#000000" stroke-miterlimit="10" pointer-events="all" /><text x="1055" y="365" fill="#000000" font-family="Helvetica" font-size="14px" text-anchor="middle">X</text><path d="M 0 465 L 0 425 L 1158 425 L 1158 405 L 1199.5 445.0 L 1158 485 L 1158 465 Z" fill="#000084" stroke="#000000" stroke-linejoin="round" stroke-miterlimit="10" pointer-events="all" /><text x="579.0" y="452" fill="#000000" font-family="Helvetica" font-size="18px" text-anchor="middle">JSON Test Track 4</text><path d="M 0 550 L 0 510 L 1158 510 L 1158 490 L 1199.5 530.0 L 1158 570 L 1158 550 Z" fill="url(#gradient_JSON_Test_Track_5_Containment_to_Retirement)" stroke="#000000" stroke-linejoin="round" stroke-miterlimit="10" pointer-events="all" /><text x="527.5" y="537" fill="#000000" font-family="Helvetica" font-size="18px" text-anchor="middle">JSON Test Track 5</text><path d="M 343 500 L 363 530 L 343 560L 323 530 Z" fill="#FFFF00" stroke="#000000" stroke-miterlimit="10" pointer-events="all" /><text x="343" y="535" fill="#000000" font-family="Helvetica" font-size="14px" text-anchor="middle">C</text><path d="M 1153 500 L 1173 530 L 1153 560L 1133 530 Z" fill="#FF3399" stroke="#000000" stroke-miterlimit="10" pointer-events="all" /><text x="1153" y="535" fill="#000000" font-family="Helvetica" font-size="14px" text-anchor="middle">R</text><path d="M 48 635 L 48 595 L 956 595 L 956 635 Z" fill="url(#fill_JSON_Test_Track_6_Emerging)" stroke="#000000" stroke-linejoin="round" stroke-miterlimit="10" pointer-events="all" /><text x="502.0" y="622" fill="#000000" font-family="Helvetica" font-size="18px" text-anchor="middle">JSON Test Track 6</text><path d="M 146 585 L 166 615 L 146 645L 126 615 Z" fill="#0000FF" stroke="#000000" stroke-miterlimit="10" pointer-events="all" /><text x="146" y="620" fill="#000000" font-family="Helvetica" font-size="14px" text-anchor="middle">E</text><path d="M 245 720 L 245 680 L 858 680 L 858 720 Z" fill="#FFFFFF" stroke="#000000" stroke-linejoin="round" stroke-miterlimit="10" pointer-events="all" /><text x="551.5" y="707" fill="#000000" font-family="Helvetica" font-size="18px" text-anchor="middle">JSON Test Track 7</text></g><text x="600" y="800" fill="#000000" font-family="Helvetica" font-size="14px" text-anchor="middle"></text></svg>